<svg width="447" height="40" viewBox="0 0 447 40" fill="none" xmlns="http://www.w3.org/2000/svg">
<path d="M69.1685 26.1111H65.1277L64.105 23.2925H56.9712L55.9236 26.1111H51.8828L58.3182 9.47392H62.7581L69.1685 26.1111ZM63.1322 20.1746L60.5381 13.0159L57.944 20.1746H63.1322Z" fill="#1C6CD5"/>
<path d="M82.4033 26.1111H78.4373L75.2446 21.4717L73.7978 23.0181V26.1111H70.63V14.0635H73.7978V19.4263L78.3625 14.0635H82.2536L77.4895 19.5261L82.4033 26.1111Z" fill="#1C6CD5"/>
<path d="M94.38 26.1111H91.2122V24.8639C90.389 25.8367 88.9673 26.4104 87.3958 26.4104C85.4752 26.4104 83.2054 25.1134 83.2054 22.4195C83.2054 19.6009 85.4752 18.5283 87.3958 18.5283C88.9922 18.5283 90.414 19.0522 91.2122 20V18.3787C91.2122 17.1565 90.1646 16.3583 88.5682 16.3583C87.2711 16.3583 86.0738 16.8322 85.0512 17.78L83.8539 15.6599C85.3256 14.3628 87.2212 13.7642 89.1169 13.7642C91.8607 13.7642 94.38 14.8617 94.38 18.3288V26.1111ZM88.668 24.2653C89.6906 24.2653 90.6884 23.9161 91.2122 23.2177V21.7211C90.6884 21.0227 89.6906 20.6735 88.668 20.6735C87.4208 20.6735 86.3981 21.322 86.3981 22.4943C86.3981 23.6168 87.4208 24.2653 88.668 24.2653Z" fill="#1C6CD5"/>
<path d="M96.3996 29.1791V23.4671C97.3724 23.2925 97.9461 22.8186 98.3202 19.9002L99.0935 14.0635H108.846V23.3424H110.168V29.1791H107.001V26.1111H99.5923V29.1791H96.3996ZM101.862 16.8322L101.488 20.0998C101.313 21.5714 100.84 22.644 100.091 23.3424H105.679V16.8322H101.862Z" fill="#1C6CD5"/>
<path d="M117.824 26.4104C114.157 26.4104 111.388 23.941 111.388 20.0748C111.388 16.5828 113.958 13.7642 117.624 13.7642C121.216 13.7642 123.66 16.458 123.66 20.3991V21.0975H114.706C114.905 22.619 116.128 23.8912 118.173 23.8912C119.196 23.8912 120.617 23.4422 121.391 22.6939L122.787 24.7392C121.59 25.8367 119.695 26.4104 117.824 26.4104ZM120.592 18.9524C120.518 17.805 119.719 16.2834 117.624 16.2834C115.654 16.2834 114.806 17.7551 114.656 18.9524H120.592Z" fill="#1C6CD5"/>
<path d="M140.191 26.1111H137.023V18.2789L133.806 26.1111H132.359L129.116 18.2789V26.1111H125.949V14.0635H130.114L133.082 21.2472L136.001 14.0635H140.191V26.1111Z" fill="#1C6CD5"/>
<path d="M146.384 26.1111H143.341V14.0635H146.509V21.3469L151.472 14.0635H154.665V26.1111H151.497V18.5533L146.384 26.1111Z" fill="#1C6CD5"/>
<path d="M161.003 26.1111H157.411L160.204 21.746C158.833 21.3968 157.535 20.1497 157.535 18.0045C157.535 15.8844 159.032 14.0635 161.701 14.0635H169.009V26.1111H165.842V21.9705H163.372L161.003 26.1111ZM162.2 19.3265H165.842V16.7324H162.2C161.327 16.7324 160.753 17.2562 160.753 18.0045C160.753 18.7778 161.302 19.3265 162.2 19.3265Z" fill="#1C6CD5"/>
<path d="M185.125 26.1111H178.565V9.47392H185.125C190.338 9.47392 193.955 12.7914 193.955 17.805C193.955 22.8186 190.338 26.1111 185.125 26.1111ZM185.125 22.9932C188.418 22.9932 190.338 20.6236 190.338 17.805C190.338 14.8617 188.543 12.5918 185.125 12.5918H182.107V22.9932H185.125Z" fill="#1C6CD5"/>
<path d="M197.965 12.7664C196.943 12.7664 196.07 11.9184 196.07 10.8707C196.07 9.82313 196.943 9 197.965 9C199.013 9 199.861 9.82313 199.861 10.8707C199.861 11.9184 199.013 12.7664 197.965 12.7664ZM199.562 26.1111H196.394V14.0635H199.562V26.1111Z" fill="#1C6CD5"/>
<path d="M207.642 31C205.571 31 203.975 30.5261 202.453 29.2041L203.875 26.9093C204.848 27.9819 206.12 28.4059 207.642 28.4059C209.163 28.4059 210.959 27.7324 210.959 25.3628V24.1406C210.011 25.3379 208.714 26.0363 207.243 26.0363C204.224 26.0363 201.93 23.9161 201.93 19.9002C201.93 15.9592 204.2 13.7642 207.243 13.7642C208.689 13.7642 209.986 14.3878 210.959 15.61V14.0635H214.152V25.288C214.152 29.8776 210.61 31 207.642 31ZM208.24 23.2177C209.288 23.2177 210.435 22.619 210.959 21.8458V17.9546C210.435 17.1565 209.288 16.5828 208.24 16.5828C206.444 16.5828 205.197 17.8299 205.197 19.9002C205.197 21.9705 206.444 23.2177 208.24 23.2177Z" fill="#1C6CD5"/>
<path d="M218.865 12.7664C217.843 12.7664 216.969 11.9184 216.969 10.8707C216.969 9.82313 217.843 9 218.865 9C219.913 9 220.761 9.82313 220.761 10.8707C220.761 11.9184 219.913 12.7664 218.865 12.7664ZM220.462 26.1111H217.294V14.0635H220.462V26.1111Z" fill="#1C6CD5"/>
<path d="M227.643 26.4104C225.424 26.4104 224.226 25.263 224.226 23.1179V16.8322H222.231V14.0635H224.226V10.771H227.419V14.0635H229.863V16.8322H227.419V22.2698C227.419 23.0181 227.818 23.5918 228.517 23.5918C228.99 23.5918 229.439 23.4172 229.614 23.2426L230.287 25.6372C229.814 26.0612 228.965 26.4104 227.643 26.4104Z" fill="#1C6CD5"/>
<path d="M242.432 26.1111H239.264V24.8639C238.441 25.8367 237.019 26.4104 235.448 26.4104C233.527 26.4104 231.258 25.1134 231.258 22.4195C231.258 19.6009 233.527 18.5283 235.448 18.5283C237.044 18.5283 238.466 19.0522 239.264 20V18.3787C239.264 17.1565 238.217 16.3583 236.62 16.3583C235.323 16.3583 234.126 16.8322 233.103 17.78L231.906 15.6599C233.378 14.3628 235.273 13.7642 237.169 13.7642C239.913 13.7642 242.432 14.8617 242.432 18.3288V26.1111ZM236.72 24.2653C237.743 24.2653 238.741 23.9161 239.264 23.2177V21.7211C238.741 21.0227 237.743 20.6735 236.72 20.6735C235.473 20.6735 234.45 21.322 234.45 22.4943C234.45 23.6168 235.473 24.2653 236.72 24.2653Z" fill="#1C6CD5"/>
<path d="M248.742 26.1111H245.574V9.47392H248.742V26.1111Z" fill="#1C6CD5"/>
<path d="M257.046 21.4218H251.06V18.7279H257.046V21.4218Z" fill="#1C6CD5"/>
<path d="M264.774 26.1111H261.581V16.8322H258.214V14.0635H268.141V16.8322H264.774V26.1111Z" fill="#1C6CD5"/>
<path d="M277.012 26.4104C275.59 26.4104 274.268 25.8118 273.296 24.5646V30.7007H270.128V14.0635H273.296V15.585C274.219 14.4127 275.54 13.7642 277.012 13.7642C280.105 13.7642 282.35 16.059 282.35 20.0748C282.35 24.0907 280.105 26.4104 277.012 26.4104ZM276.014 23.5918C277.835 23.5918 279.057 22.1701 279.057 20.0748C279.057 18.0045 277.835 16.5828 276.014 16.5828C274.992 16.5828 273.819 17.1814 273.296 17.9546V22.22C273.819 22.9683 274.992 23.5918 276.014 23.5918Z" fill="#1C6CD5"/>
<path d="M295.071 26.1111H291.904V24.8639C291.08 25.8367 289.659 26.4104 288.087 26.4104C286.167 26.4104 283.897 25.1134 283.897 22.4195C283.897 19.6009 286.167 18.5283 288.087 18.5283C289.684 18.5283 291.105 19.0522 291.904 20V18.3787C291.904 17.1565 290.856 16.3583 289.26 16.3583C287.962 16.3583 286.765 16.8322 285.742 17.78L284.545 15.6599C286.017 14.3628 287.913 13.7642 289.808 13.7642C292.552 13.7642 295.071 14.8617 295.071 18.3288V26.1111ZM289.359 24.2653C290.382 24.2653 291.38 23.9161 291.904 23.2177V21.7211C291.38 21.0227 290.382 20.6735 289.359 20.6735C288.112 20.6735 287.089 21.322 287.089 22.4943C287.089 23.6168 288.112 24.2653 289.359 24.2653Z" fill="#1C6CD5"/>
<path d="M301.381 26.1111H298.213V14.0635H301.381V18.5283H306.37V14.0635H309.538V26.1111H306.37V21.2971H301.381V26.1111Z" fill="#1C6CD5"/>
<path d="M318.295 26.4104C314.578 26.4104 311.909 23.7914 311.909 20.0748C311.909 16.3832 314.578 13.7642 318.295 13.7642C320.764 13.7642 322.261 14.8367 323.059 15.9342L320.989 17.8798C320.415 17.0317 319.542 16.5828 318.444 16.5828C316.524 16.5828 315.177 17.9796 315.177 20.0748C315.177 22.1701 316.524 23.5918 318.444 23.5918C319.542 23.5918 320.415 23.093 320.989 22.2948L323.059 24.2154C322.261 25.3379 320.764 26.4104 318.295 26.4104Z" fill="#1C6CD5"/>
<path d="M329.245 13.7642C330.493 13.7642 331.59 14.3628 332.463 15.61V9.47392H335.631V15.585C336.429 14.4127 337.576 13.7642 338.849 13.7642C341.518 13.7642 343.463 16.059 343.463 20.0748C343.463 24.0907 341.518 26.4104 338.849 26.4104C337.601 26.4104 336.479 25.8118 335.631 24.5646V30.7007H332.463V24.5646C331.665 25.7619 330.518 26.4104 329.245 26.4104C326.576 26.4104 324.631 24.1156 324.631 20.0998C324.631 16.0839 326.576 13.7642 329.245 13.7642ZM330.268 16.5828C328.846 16.5828 327.824 18.0045 327.824 20.0998C327.824 22.1701 328.846 23.5918 330.268 23.5918C331.091 23.5918 332.014 22.9932 332.463 22.22V17.9546C332.039 17.2063 331.091 16.5828 330.268 16.5828ZM337.801 23.5918C339.248 23.5918 340.245 22.1701 340.245 20.0748C340.245 18.0045 339.248 16.5828 337.801 16.5828C337.003 16.5828 336.055 17.1814 335.631 17.9546V22.22C336.055 22.9683 337.003 23.5918 337.801 23.5918Z" fill="#1C6CD5"/>
<path d="M351.69 26.4104C347.724 26.4104 345.329 23.517 345.329 20.0748C345.329 16.6576 347.724 13.7642 351.69 13.7642C355.681 13.7642 358.075 16.6576 358.075 20.0748C358.075 23.517 355.681 26.4104 351.69 26.4104ZM351.69 23.5918C353.66 23.5918 354.783 21.9705 354.783 20.0748C354.783 18.2041 353.66 16.5828 351.69 16.5828C349.719 16.5828 348.622 18.2041 348.622 20.0748C348.622 21.9705 349.719 23.5918 351.69 23.5918Z" fill="#1C6CD5"/>
<path d="M367.31 26.4104C365.888 26.4104 364.566 25.8118 363.593 24.5646V30.7007H360.426V14.0635H363.593V15.585C364.516 14.4127 365.838 13.7642 367.31 13.7642C370.403 13.7642 372.648 16.059 372.648 20.0748C372.648 24.0907 370.403 26.4104 367.31 26.4104ZM366.312 23.5918C368.133 23.5918 369.355 22.1701 369.355 20.0748C369.355 18.0045 368.133 16.5828 366.312 16.5828C365.289 16.5828 364.117 17.1814 363.593 17.9546V22.22C364.117 22.9683 365.289 23.5918 366.312 23.5918Z" fill="#1C6CD5"/>
<path d="M389.21 26.1111H386.042V18.2789L382.825 26.1111H381.378L378.135 18.2789V26.1111H374.968V14.0635H379.133L382.101 21.2472L385.02 14.0635H389.21V26.1111Z" fill="#1C6CD5"/>
<path d="M402.761 26.1111H399.593V24.8639C398.77 25.8367 397.348 26.4104 395.777 26.4104C393.856 26.4104 391.587 25.1134 391.587 22.4195C391.587 19.6009 393.856 18.5283 395.777 18.5283C397.373 18.5283 398.795 19.0522 399.593 20V18.3787C399.593 17.1565 398.546 16.3583 396.949 16.3583C395.652 16.3583 394.455 16.8322 393.432 17.78L392.235 15.6599C393.707 14.3628 395.602 13.7642 397.498 13.7642C400.242 13.7642 402.761 14.8617 402.761 18.3288V26.1111ZM397.049 24.2653C398.072 24.2653 399.07 23.9161 399.593 23.2177V21.7211C399.07 21.0227 398.072 20.6735 397.049 20.6735C395.802 20.6735 394.779 21.322 394.779 22.4943C394.779 23.6168 395.802 24.2653 397.049 24.2653Z" fill="#1C6CD5"/>
<path d="M415.382 29.1791V26.1111H405.903V14.0635H409.071V23.3424H414.06V14.0635H417.227V23.3424H418.549V29.1791H415.382Z" fill="#1C6CD5"/>
<path d="M423.586 26.1111H420.543V14.0635H423.711V21.3469L428.674 14.0635H431.867V26.1111H428.699V18.5533L423.586 26.1111Z" fill="#1C6CD5"/>
<path d="M438.055 26.1111H435.012V14.0635H438.18V21.3469L443.143 14.0635H446.336V26.1111H443.168V18.5533L438.055 26.1111Z" fill="#1C6CD5"/>
<circle cx="3.81801" cy="13.1146" r="2.95082" fill="#1C6CD5"/>
<path fill-rule="evenodd" clip-rule="evenodd" d="M23.1615 0.267439C22.0947 0.0915096 20.9995 0 19.8829 0C15.2309 0 10.9499 1.58826 7.55247 4.2521C6.55021 5.03795 6.55323 6.51129 7.4538 7.41187C8.34624 8.3043 9.78303 8.29314 10.8021 7.54863C13.3487 5.68824 16.4876 4.59016 19.8829 4.59016C21.008 4.59016 22.105 4.71075 23.1615 4.93969V0.267439ZM0.0126692 22.2913C-0.130967 21.0319 0.910395 20 2.17793 20C3.44547 20 4.45505 21.0335 4.6416 22.2873C5.74656 29.7132 12.1494 35.4098 19.8829 35.4098C28.3935 35.4098 35.2927 28.5106 35.2927 20C35.2927 18.9109 35.1797 17.8482 34.9648 16.8229V6.86433C38.0278 10.3782 39.8829 14.9725 39.8829 20C39.8829 31.0457 30.9285 40 19.8829 40C9.61199 40 1.1494 32.2579 0.0126692 22.2913ZM26.4402 1.01238C27.834 1.55151 30.1358 2.53944 31.3583 3.36162V19.459C31.3578 19.4591 31.3574 19.4592 31.357 19.4593C31.3597 19.5615 31.361 19.664 31.361 19.7668C31.361 26.1045 26.2233 31.2422 19.8856 31.2422C13.5479 31.2422 8.4102 26.1045 8.4102 19.7668C8.4102 13.4291 13.5479 8.29138 19.8856 8.29138C21.0248 8.29138 22.1253 8.45739 23.1641 8.76654V13.7506C22.2141 13.197 21.102 12.8815 19.8856 12.8815C16.083 12.8815 13.0004 15.9642 13.0004 19.7668C13.0004 23.5694 16.083 26.652 19.8856 26.652C23.4561 26.652 26.1274 23.9342 26.4402 20.4545V1.01238Z" fill="#1C6CD5"/>
</svg>
